<?xml version="1.0" encoding="UTF-8"?>
<svg preserveAspectRatio="none" version="1.1" viewBox="0 0 2.1833 15.723" xmlns="http://www.w3.org/2000/svg">
 <path d="m0.97353 5.5417v-2.5886q0-1.2852-0.1843-1.8503-0.17957-0.56511-0.64267-0.71094-0.14649-0.036458-0.14649-0.18229 0-0.20964 0.29771-0.20964h0.29771q0.49146 0 0.74664 0.6836 0.25518 0.67448 0.25518 1.987v2.6341q0 0.7474 0.033079 1.0391 0.033079 0.28255 0.16539 0.67448 0.12759 0.3737 0.30716 0.63802 0.080334 0.11849 0.080334 0.20052 0 0.082032-0.080334 0.20964-0.17957 0.26432-0.30716 0.63802-0.13232 0.39193-0.16539 0.6836-0.033079 0.28255-0.033079 1.0208v2.6432q0 1.3125-0.25518 1.987-0.25518 0.6836-0.74664 0.6836h-0.29771q-0.30243 0-0.29771-0.21875 0.0047256-0.15495 0.17485-0.21875 0.4631-0.15495 0.6285-0.69271 0.17012-0.52865 0.17012-1.832v-2.5794q0-1.4128 0.37804-2.0052l0.094511-0.14583q0.070883-0.10938 0.070883-0.17318 0-0.054687-0.070883-0.16406l-0.094511-0.14583q-0.37804-0.58334-0.37804-2.0052z" stroke-width=".72004"/>
</svg>
