<?xml version="1.0" encoding="UTF-8"?>
<svg preserveAspectRatio="none" version="1.1" viewBox="0 0 .91472 17.136" xmlns="http://www.w3.org/2000/svg">
 <g stroke-width=".5483">
  <path d="m0.73514 2.5013c0-1.96-0.35915-2.5013-0.60046-2.5013-0.050506 0-0.13468 0.018667-0.13468 0.093334 0 0.093333 0.37599 0.41067 0.37599 2.072 0 1.0827-0.15152 2.1653-0.15152 3.6027 0 0.82133 0.056118 1.8107 0.23569 2.744 0.005612 0.03734 0.022448 0.112 0.022448 0.18667 0 0.18667-0.24131 0.87734-0.24131 2.5013 0 1.2134 0.15713 2.3707 0.15713 3.5467 0 1.7173-0.35915 2.2773-0.35915 2.3333 0 0.0374 0.016836 0.056 0.089788 0.056 0.25253 0 0.62852-0.5786 0.62852-2.632 0-1.4373-0.17958-2.632-0.17958-3.8266 0-0.97071 0.12907-1.6054 0.31426-1.9414 0.016836-0.01866 0.022448-0.056 0.022448-0.09333 0-0.01867 0-0.01867-0.005612-0.03733-0.022447-0.056-0.32548-0.28-0.32548-1.8667 0-1.4373 0.15152-2.7253 0.15152-4.2373z"/>
 </g>
</svg>
