<?xml version="1.0" encoding="UTF-8"?>
<svg preserveAspectRatio="none" version="1.1" viewBox="0 0 .5 3" xmlns="http://www.w3.org/2000/svg">
 <g stroke-width=".16961">
  <path d="m0.40184 0.43791c0-0.34314-0.19632-0.43791-0.32822-0.43791-0.027607 0-0.07362 0.003268-0.07362 0.01634 0 0.01634 0.20552 0.071896 0.20552 0.36275 0 0.18954-0.082823 0.37909-0.082823 0.63072 0 0.14379 0.030675 0.31699 0.12884 0.48039 0.003067 0.00654 0.01227 0.01961 0.01227 0.03268 0 0.03268-0.1319 0.1536-0.1319 0.4379 0 0.21243 0.085889 0.41504 0.085889 0.62092 0 0.30065-0.19632 0.39869-0.19632 0.4085 0 0.00654 0.0092025 0.0098 0.04908 0.0098 0.13804 0 0.34356-0.1013 0.34356-0.46078 0-0.25163-0.098159-0.46079-0.098159-0.66993 0-0.16994 0.070552-0.28105 0.17178-0.33987 0.009202-0.00327 0.01227-0.00981 0.01227-0.01634 0-0.00327 0-0.00327-0.003068-0.00654-0.012269-0.0098-0.17791-0.04902-0.17791-0.3268 0-0.25163 0.082822-0.47712 0.082822-0.74183z"/>
 </g>
</svg>
